<svg xmlns:xlink="http://www.w3.org/1999/xlink" height="77.75" width="86.5" xmlns="http://www.w3.org/2000/svg"><use height="15.55" transform="scale(5)" width="17.3" xlink:href="#a"/><defs><g id="a" fill-rule="evenodd"><path d="m4.55 10.05 2.8.65V9.65H8.4l3.75 2.45-1.55-1.75h.95l1.25-.85.95 1.75-.55.15.3 1.95h-1.1l.45.45-4.5-.25-2.5-1L4.3 14.3H2.1l2.45-4.25" fill="#ab5703"/><path d="M4.55 10.05 2.1 14.3h2.2l1.55-1.75 2.5 1 4.5.25-.45-.45h1.1l-.3-1.95.55-.15-.95-1.75L9 2.35l-4.45 7.7m-3.4 4.85L9 1.35l7.25 13.55H1.15" fill="#724701"/><path d="m12.8 9.5-1.25.85h-.95l1.55 1.75L8.4 9.65H7.35v1.05l-2.8-.65L9 2.35l3.8 7.15" fill="#e3e3e3"/><path d="M1.15 14.9h15.1L9 1.35 1.15 14.9M0 15.55 9 0l8.3 15.55H0" fill="#d36c05"/></g></defs></svg>