<svg xmlns:xlink="http://www.w3.org/1999/xlink" height="77" width="77" xmlns="http://www.w3.org/2000/svg"><use height="15.4" transform="scale(5)" width="15.4" xlink:href="#a"/><defs><g id="a"><path d="M6 13.45q-1.7-.35-3-1.65-.9-.9-1.35-1.95l-.4-1.45v-.1l-.1-.9v-.25q.1-1.05.7-2.65Q2.25 3.7 3 3q1.4-1.4 3.25-1.8l2.3-.1q2.15.65 3.4 1.9.9.85 1.4 1.95l.45 2.45-.05.6-.1.95q-.35 1.2-1.1 2.25l-.15.15-.45.45q-1.85 1.8-4.45 1.8h-.6l.05-.05.6-.65q.55-.95 1.45-1.45l.15.25.75-3.25.25-2.4-.25-.4Q9.25 4.8 7.65 4.4q1.3-.3 2.65.65.25-1.15.85-1.85-1.7-1.5-3.1-1.05-1.2.35-2.45 1.95l-.1.1h.05L5 4.9q.55-2.3 1.75-3.4-3.1 1.75-3.35 5.65 1.15-.2 2.75 1.45l.45.4.25.4-.1.15-.45 2.9-.05.15-.25.85m1.35-.8h.2l-.35.3h-.05l-.7-.3v-.2l.9.2m2.95-7.6q-.25-.05-.15 1l.15-1M6.15 8.6l-.5-.95q.9-1.1 2.2-1.2-1.25 1-1.7 2.15" fill="#e3e3e3" fill-rule="evenodd" transform="translate(.25 .25)"/><path d="m6.75 9.55.1-.15.35.55-.45-.4" fill="#cecece" fill-rule="evenodd" transform="translate(.25 .25)"/><path d="m5.6 4.1.05.05-.1.05H5.5l.1-.1m0 10.55v.05l-.05-.05h.05" fill="#858585" fill-rule="evenodd" transform="translate(.25 .25)"/><path d="M5.65 4.15 6.5 6.3l2.25-.05q-1.55.65-1.5 1.5l-.1 1.1q-.25.15.65 1.2.85 1 .4.9-.4-.1-.65-.35.35.5.1 1.4l-.3.65-.9-.2v.2l.7.3H7.1l-.2.25-.5.35-.35-.15-.05.05.25-.85.05-.15.45-2.9.45.4-.35-.55L6.6 9l-.45-.4Q4.55 6.95 3.4 7.15q.25-3.9 3.35-5.65Q5.55 2.6 5 4.9l.55-.7.1-.05m.5 4.45q.45-1.15 1.7-2.15-1.3.1-2.2 1.2l.5.95" fill="#093" fill-rule="evenodd" transform="translate(.25 .25)"/><path d="M5.6 4.1q1.25-1.6 2.45-1.95 1.4-.45 3.1 1.05-.6.7-.85 1.85-1.35-.95-2.65-.65 1.6.4 2.25 1.25l.25.4-.25 2.4-.75 3.25-.15-.25q-.9.5-1.45 1.45l-.6.65-.05.05h.6q2.6 0 4.45-1.8l.45-.45.15-.15q.75-1.05 1.1-2.25l.1-.95.05-.6-.45-2.45q-.5-1.1-1.4-1.95-1.25-1.25-3.4-1.9l-2.3.1Q4.4 1.6 3 3q-.75.7-1.15 1.5-.6 1.6-.7 2.65v.25l.1.9v.1l.4 1.45Q2.1 10.9 3 11.8q1.3 1.3 3 1.65l.05-.05.35.15.5-.35.2-.25h.1l.35-.3h-.2l.3-.65q.25-.9-.1-1.4.25.25.65.35.45.1-.4-.9-.9-1.05-.65-1.2l.1-1.1q-.05-.85 1.5-1.5L6.5 6.3l-.85-2.15-.05-.05m4.7.95-.15 1q-.1-1.05.15-1m-4.75 9.6q-1.9-.5-3.35-1.95-1-1-1.55-2.2-.45-.95-.55-2L0 7.45v-.1Q.05 4.3 2.2 2.2 4.4 0 7.45 0q3.1 0 5.3 2.2 2.15 2.15 2.15 5.25v.45q-.15 2.75-2.15 4.8-2.2 2.15-5.3 2.2l-1.85-.25h-.05" fill="#063" fill-rule="evenodd" transform="translate(.25 .25)"/><path d="M5.8 14.9q-1.9-.5-3.35-1.95-1-1-1.55-2.2-.45-.95-.55-2L.25 7.7v-.1q.05-3.05 2.2-5.15Q4.65.25 7.7.25q3.1 0 5.3 2.2 2.15 2.15 2.15 5.25v.45Q15 10.9 13 12.95q-2.2 2.15-5.3 2.2l-1.85-.25m0 .05-.05-.05z" fill="none" stroke="#090" stroke-miterlimit="3" stroke-width=".5"/></g></defs></svg>