<svg xmlns:xlink="http://www.w3.org/1999/xlink" height="77" width="77" xmlns="http://www.w3.org/2000/svg"><use height="15.4" transform="scale(5)" width="15.4" xlink:href="#a"/><defs><g id="a"><path d="M6.65 1.15Q4.55 1.6 3.2 2.8L3 3Q1.1 4.8 1.15 7.4 1.1 9.95 3 11.8q1.85 1.8 4.45 1.85Q10 13.6 11.8 11.9l.15-.1q1.85-1.85 1.85-4.4 0-2.6-1.85-4.4l-.15-.15-.25-.2q-1.2-1-3.05-1.55l.1.15H7.55l-.7-.15H6.8l-.15.05m8.25 6.3q0 3.05-2.2 5.25l-.9.75q-1.9 1.4-4.35 1.45-3.1-.05-5.25-2.2Q0 10.5 0 7.45q0-3.1 2.2-5.25l1-.9Q5.05 0 7.45 0q2.3 0 4.1 1.25l.25.15.9.8q2.2 2.15 2.2 5.25" fill="#024b95" fill-rule="evenodd" transform="translate(.25 .25)"/><path d="M7.55 1.25H8.6l-.1-.15q1.85.55 3.05 1.55l.25.2.15.15q1.85 1.8 1.85 4.4 0 2.55-1.85 4.4l-.15.1q-1.8 1.7-4.35 1.75Q4.85 13.6 3 11.8 1.1 9.95 1.15 7.4 1.1 4.8 3 3l.2-.2q1.35-1.2 3.45-1.65h.15l.1.1h.65M4.3 10h.05l-.05-.05V10m4.95 2.1-.1.05.05-.05h.05m-1.55.15-1-.3-.5-.25 1.5.55" fill="#e3e3e3" fill-rule="evenodd" transform="translate(.25 .25)"/><path d="m6.65 1.15.15-.05h.05l.7.15H6.9l-.1-.1h-.15m2.6 10.95.05-.1-.05.1H9.2l-.05.05.1-.05m-1.55.15-1.5-.55.5.25 1 .3" fill="#1f8efe" fill-rule="evenodd" transform="translate(.25 .25)"/><path d="M4.3 10v-.05l.05.05H4.3" fill="#015eba" fill-rule="evenodd" transform="translate(.25 .25)"/><path d="M15.15 7.7q0 3.05-2.2 5.25l-.9.75q-1.9 1.4-4.35 1.45-3.1-.05-5.25-2.2-2.2-2.2-2.2-5.25 0-3.1 2.2-5.25l1-.9Q5.3.25 7.7.25q2.3 0 4.1 1.25l.25.15.9.8q2.2 2.15 2.2 5.25z" fill="none" stroke="#85c2fe" stroke-miterlimit="3" stroke-width=".5"/><path d="m6.1 11.55-.55-.35 1.8.4q.75-.05 1.35-.6 1.15-1.1 1.4-4.2V7l-.05 1.55q-.2 2.1-.85 3.3l-.1.1V12h-.05l-1.45.1-1-.3-.5-.25" fill="#e3e3e3" fill-rule="evenodd" transform="translate(.25 .25)"/><path d="M7.45 1.1H8.5q2.45 4.8 2.45 6.9 0 5.75-4.75 4.6-2.15-.95-2-2.75h.05Q6 10.9 7.6 9.55q.75-.7.95-1.6Q9 5.4 8.3 2.9l-.2-.75q-.15-.8-.65-1.05M9.2 11.85q.65-1.2.85-3.3L10.1 7v-.2Q9.85 9.9 8.7 11q-.6.55-1.35.6l-1.8-.4.55.35q.75.45 1.5.55l1.45-.1h.05v-.05l.1-.1-.1.15.1-.15" fill="#024b95" fill-rule="evenodd" transform="translate(.25 .25)"/><path d="M7.45 1.1q.5.25.65 1.05l.2.75q.7 2.5.25 5.05-.2.9-.95 1.6-1.6 1.35-3.35.3L4.2 9.8q.1-1.25 1.3-2.9 2.75-4 1.3-5.8h.65" fill="#1f8efe" fill-rule="evenodd" transform="translate(.25 .25)"/></g></defs></svg>