<svg xmlns:xlink="http://www.w3.org/1999/xlink" height="77" width="77" xmlns="http://www.w3.org/2000/svg"><use height="15.4" transform="scale(5)" width="15.4" xlink:href="#a"/><defs><g id="a"><path d="M6.65 1.15Q4.55 1.6 3.2 2.8L3 3Q1.75 4.2 1.35 5.75q-.25.75-.2 1.65l.05 1.05q.3 1.9 1.8 3.35 1.85 1.8 4.45 1.85Q10 13.6 11.8 11.9l.15-.1q1.45-1.45 1.75-3.35l.1-1.05-.2-1.65Q13.15 4.2 11.95 3l-.15-.15-.25-.2q-1.15-1-2.95-1.55h-.05q-.85-.25-1.7 0H6.8l-.15.05M12.7 2.2l1.55 2.2q.65 1.4.65 3.05l-.1 1q-.3 2.4-2.1 4.25l-.9.75q-1.9 1.4-4.35 1.45-3.1-.05-5.25-2.2Q.35 10.85.05 8.45l-.05-1q0-2.3 1.2-4.1l1-1.15 1-.9.3-.2.35-.2q1.6-.9 3.6-.9 1.95 0 3.6.9l.3.2.2.15.25.15.9.8" fill-rule="evenodd" transform="translate(.25 .25)"/><path d="M8.6 1.1q1.8.55 2.95 1.55l.25.2.15.15q1.2 1.2 1.65 2.75l.2 1.65-.1 1.05q-.3 1.9-1.75 3.35l-.15.1q-1.8 1.7-4.35 1.75Q4.85 13.6 3 11.8q-1.5-1.45-1.8-3.35L1.15 7.4q-.05-.9.2-1.65Q1.75 4.2 3 3l.2-.2q1.35-1.2 3.45-1.65h.15l.05-.05q.85-.25 1.7 0h.05m-.1 0h.05-.05M6.8 12h-.5l.5.1V12l-.1-.05-.2-.1-.3-.15.3.15.2.1.1.05" fill="#e3e3e3" fill-rule="evenodd" transform="translate(.25 .25)"/><path d="m12.95 2.45 1.55 2.2q.65 1.4.65 3.05l-.1 1q-.3 2.4-2.1 4.25l-.9.75q-1.9 1.4-4.35 1.45-3.1-.05-5.25-2.2Q.6 11.1.3 8.7l-.05-1q0-2.3 1.2-4.1l1-1.15 1-.9.3-.2.35-.2q1.6-.9 3.6-.9 1.95 0 3.6.9l.3.2.2.15.25.15.9.8" fill="none" stroke="#306" stroke-miterlimit="3" stroke-width=".5"/><path d="M7.05 1.35h.05" fill="none" stroke="#666" stroke-miterlimit="3" stroke-width=".05"/><path d="m12.8 12.25-3.45-2.5q-.55.45-1.3.5l-.7 4.55-.55-4.6q-.6-.1-1.05-.5l-3.7 2.75L4.9 8.8 4.6 8l-.05-.25L0 7l4.6-.5q.1-.6.5-1.05L2.35 1.7 6 4.6l.95-.4.5-4.2.65 4.15q.55.1 1.05.45l.1.05 3.35-2.7-2.5 3.5.05.1.4.95.05.1 4.25.5-4.25.7v.1l-.4 1 2.6 3.35" fill="#636" fill-rule="evenodd" transform="translate(.25 .25)"/><path d="m8.05 5.5-.45-.2.45.1.45.15.3.25q.65.55.7 1.45.05.8-.55 1.4l-.7.55-.7.2-.45-.05-1.05-.55q-.65-.55-.65-1.3v-.6l.05.2v.05l.05.3.05.05.4.55q.45.4 1.1.4h.1l.6-.2.4-.2L8.2 8l.05-.1q.45-.55.4-1.15 0-.7-.5-1.15l-.1-.1" fill="#e3e3e3" fill-rule="evenodd" transform="translate(.25 .25)"/></g></defs></svg>