<svg xmlns:xlink="http://www.w3.org/1999/xlink" height="77.75" width="86.5" xmlns="http://www.w3.org/2000/svg"><use height="15.55" transform="scale(5)" width="17.3" xlink:href="#a"/><defs><g id="a" fill-rule="evenodd"><path d="m11.25 11.1-.2.5-.5.2q-.3 0-.5-.2l-.2-.5.2-.5.5-.2.5.2.2.5m.1-4.3q-2.15-1.95-2.5.75-.4 2.65-2.1 4.5-1.15 1.25-2.45 1l-.65-.2-.55-.3L9 2.35l2.35 4.45M7.7 8.65l.2-.5-.2-.5-.5-.2q-.3 0-.5.2l-.2.5.2.5q.2.2.5.2l.5-.2" fill="#e3e3e3"/><path d="m11.25 11.1-.2-.5-.5-.2-.5.2-.2.5.2.5q.2.2.5.2l.5-.2.2-.5M4.3 13.05q2.2 1.5 4.5-1.5Q9.95 9.95 10.35 8q.35-1.05 1-1.2L9 2.35l-5.9 10.2.55.3.65.2m3.4-4.4-.5.2q-.3 0-.5-.2l-.2-.5.2-.5q.2-.2.5-.2l.5.2.2.5-.2.5M9 1.35l7.25 13.55H1.15L9 1.35"/><path d="M11.35 6.8q-.65.15-1 1.2-.4 1.95-1.55 3.55-2.3 3-4.5 1.5 1.3.25 2.45-1 1.7-1.85 2.1-4.5.35-2.7 2.5-.75" fill="#404040"/><path d="M9 1.35 1.15 14.9h15.1L9 1.35M9 0l8.3 15.55H0L9 0" fill="#555"/></g></defs></svg>