<?xml version="1.0" encoding="utf-8"?>
<!-- Generated by Mocodo 4.0.2 -->
<svg width="411" height="524" viewBox="0 0 411 524" xmlns="http://www.w3.org/2000/svg">
<rect x="0" y="0" width="411" height="524" fill="#ffffff" stroke="none" stroke-width="0"/>

<!-- Association POSSEDE -->
<g>
	<line x1="208" y1="34" x2="80" y2="34" stroke="#878787" stroke-width="2"/>
	<line x1="80" y1="177" x2="80" y2="34" stroke="#878787" stroke-width="2"/>
	<g>
		<path d="M103 9 a14 14 90 0 1 14 14 V34 h-74 V23 a14 14 90 0 1 14 -14" fill="#bababa" stroke="#bababa" stroke-width="0"/>
		<path d="M117 34 v11 a14 14 90 0 1 -14 14 H57 a14 14 90 0 1 -14 -14 V34 H74" fill="#e0e0e0" stroke="#e0e0e0" stroke-width="0"/>
		<rect x="43" y="9" width="74" height="50" fill="none" rx="14" stroke="#878787" stroke-width="2"/>
		<line x1="43" y1="34" x2="117" y2="34" stroke="#878787" stroke-width="1"/>
		<text x="51" y="26.75" fill="#000000" font-family="Verdana" font-size="12">POSSEDE</text>
	</g>
	<text x="138" y="51" fill="#b2182b" font-family="Verdana" font-size="12">1,1</text>
	<text x="85" y="76" fill="#b2182b" font-family="Verdana" font-size="12">0,N</text>
</g>

<!-- Association REPRESENTE -->
<g>
	<line x1="331" y1="177" x2="331" y2="34" stroke="#878787" stroke-width="2"/>
	<line x1="208" y1="34" x2="331" y2="34" stroke="#878787" stroke-width="2"/>
	<g>
		<path d="M364 9 a14 14 90 0 1 14 14 V34 h-94 V23 a14 14 90 0 1 14 -14" fill="#bababa" stroke="#bababa" stroke-width="0"/>
		<path d="M378 34 v11 a14 14 90 0 1 -14 14 H298 a14 14 90 0 1 -14 -14 V34 H94" fill="#e0e0e0" stroke="#e0e0e0" stroke-width="0"/>
		<rect x="284" y="9" width="94" height="50" fill="none" rx="14" stroke="#878787" stroke-width="2"/>
		<line x1="284" y1="34" x2="378" y2="34" stroke="#878787" stroke-width="1"/>
		<text x="291" y="26.75" fill="#000000" font-family="Verdana" font-size="12">REPRESENTE</text>
	</g>
	<text x="336" y="118" fill="#b2182b" font-family="Verdana" font-size="12">0,N</text>
	<text x="257" y="51" fill="#b2182b" font-family="Verdana" font-size="12">1,1</text>
</g>

<!-- Association VEND -->
<g>
	<line x1="331" y1="177" x2="208" y2="177" stroke="#878787" stroke-width="2"/>
	<line x1="80" y1="177" x2="208" y2="177" stroke="#878787" stroke-width="2"/>
	<g>
		<path d="M219 152 a14 14 90 0 1 14 14 V177 h-50 V166 a14 14 90 0 1 14 -14" fill="#bababa" stroke="#bababa" stroke-width="0"/>
		<path d="M233 177 v11 a14 14 90 0 1 -14 14 H197 a14 14 90 0 1 -14 -14 V177 H50" fill="#e0e0e0" stroke="#e0e0e0" stroke-width="0"/>
		<rect x="183" y="152" width="50" height="50" fill="none" rx="14" stroke="#878787" stroke-width="2"/>
		<line x1="183" y1="177" x2="233" y2="177" stroke="#878787" stroke-width="1"/>
		<text x="191" y="169.75" fill="#000000" font-family="Verdana" font-size="12">VEND</text>
	</g>
	<text x="246" y="194" fill="#b2182b" font-family="Verdana" font-size="12">1,1</text>
	<text x="156" y="194" fill="#b2182b" font-family="Verdana" font-size="12">0,N</text>
</g>

<!-- Association CORRESPOND -->
<g>
	<line x1="331" y1="177" x2="331" y2="295" stroke="#878787" stroke-width="2"/>
	<line x1="331" y1="430" x2="331" y2="295" stroke="#878787" stroke-width="2"/>
	<g>
		<path d="M367 270 a14 14 90 0 1 14 14 V295 h-100 V284 a14 14 90 0 1 14 -14" fill="#bababa" stroke="#bababa" stroke-width="0"/>
		<path d="M381 295 v11 a14 14 90 0 1 -14 14 H295 a14 14 90 0 1 -14 -14 V295 H100" fill="#e0e0e0" stroke="#e0e0e0" stroke-width="0"/>
		<rect x="281" y="270" width="100" height="50" fill="none" rx="14" stroke="#878787" stroke-width="2"/>
		<line x1="281" y1="295" x2="381" y2="295" stroke="#878787" stroke-width="1"/>
		<text x="288" y="287.75" fill="#000000" font-family="Verdana" font-size="12">CORRESPOND</text>
	</g>
	<text x="336" y="245" fill="#b2182b" font-family="Verdana" font-size="12">1,1</text>
	<text x="336" y="337" fill="#b2182b" font-family="Verdana" font-size="12">0,N</text>
</g>

<!-- Entity FAVORIS -->
<g>
	<g>
		<rect x="164" y="9" width="88" height="25" fill="#f4a582" stroke="none" stroke-width="0" opacity="1"/>
		<rect x="164" y="34" width="88" height="25" fill="#fddbc7" stroke="none" stroke-width="0" opacity="1"/>
		<rect x="164" y="9" width="88" height="50" fill="none" stroke="#d6604d" stroke-width="2" opacity="1"/>
		<line x1="164" y1="34" x2="252" y2="34" stroke="#d6604d" stroke-width="1"/>
	</g>
	<text x="181" y="26.75" fill="#000000" font-family="Verdana" font-size="12">FAVORIS</text>
	<text x="169" y="51.8" fill="#000000" font-family="Verdana" font-size="12">code_favoris</text>
	<line x1="169" y1="54" x2="246" y2="54" stroke="#000000" stroke-width="1"/>
</g>

<!-- Entity USER -->
<g>
	<g>
		<rect x="9" y="84" width="142" height="25" fill="#f4a582" stroke="none" stroke-width="0" opacity="1"/>
		<rect x="9" y="109" width="142" height="161" fill="#fddbc7" stroke="none" stroke-width="0" opacity="1"/>
		<rect x="9" y="84" width="142" height="186" fill="none" stroke="#d6604d" stroke-width="2" opacity="1"/>
		<line x1="9" y1="109" x2="151" y2="109" stroke="#d6604d" stroke-width="1"/>
	</g>
	<text x="63" y="101.75" fill="#000000" font-family="Verdana" font-size="12">USER</text>
	<text x="14" y="126.8" fill="#000000" font-family="Verdana" font-size="12">code_user</text>
	<line x1="14" y1="129" x2="77" y2="129" stroke="#000000" stroke-width="1"/>
	<text x="14" y="143.8" fill="#000000" font-family="Verdana" font-size="12">pseudo</text>
	<text x="14" y="160.8" fill="#000000" font-family="Verdana" font-size="12">email</text>
	<text x="14" y="177.8" fill="#000000" font-family="Verdana" font-size="12">password</text>
	<text x="14" y="194.8" fill="#000000" font-family="Verdana" font-size="12">role</text>
	<text x="14" y="211.8" fill="#000000" font-family="Verdana" font-size="12">discord</text>
	<text x="14" y="228.8" fill="#000000" font-family="Verdana" font-size="12">profil_picture_id</text>
	<text x="14" y="245.8" fill="#000000" font-family="Verdana" font-size="12">discord&#45;access&#45;token</text>
	<text x="14" y="262.8" fill="#000000" font-family="Verdana" font-size="12">discord&#45;refresh&#45;token</text>
</g>

<!-- Entity HDV -->
<g>
	<g>
		<rect x="272" y="126" width="118" height="25" fill="#f4a582" stroke="none" stroke-width="0" opacity="1"/>
		<rect x="272" y="151" width="118" height="77" fill="#fddbc7" stroke="none" stroke-width="0" opacity="1"/>
		<rect x="272" y="126" width="118" height="102" fill="none" stroke="#d6604d" stroke-width="2" opacity="1"/>
		<line x1="272" y1="151" x2="390" y2="151" stroke="#d6604d" stroke-width="1"/>
	</g>
	<text x="318" y="143.75" fill="#000000" font-family="Verdana" font-size="12">HDV</text>
	<text x="277" y="168.8" fill="#000000" font-family="Verdana" font-size="12">code_hdv</text>
	<line x1="277" y1="171" x2="336" y2="171" stroke="#000000" stroke-width="1"/>
	<text x="277" y="185.8" fill="#000000" font-family="Verdana" font-size="12">serveur</text>
	<text x="277" y="202.8" fill="#000000" font-family="Verdana" font-size="12">carac_specifiques</text>
	<text x="277" y="219.8" fill="#000000" font-family="Verdana" font-size="12">price</text>
</g>

<!-- Entity ITEMS_GENERIC -->
<g>
	<g>
		<rect x="260" y="345" width="142" height="25" fill="#f4a582" stroke="none" stroke-width="0" opacity="1"/>
		<rect x="260" y="370" width="142" height="145" fill="#fddbc7" stroke="none" stroke-width="0" opacity="1"/>
		<rect x="260" y="345" width="142" height="170" fill="none" stroke="#d6604d" stroke-width="2" opacity="1"/>
		<line x1="260" y1="370" x2="402" y2="370" stroke="#d6604d" stroke-width="1"/>
	</g>
	<text x="280" y="362.75" fill="#000000" font-family="Verdana" font-size="12">ITEMS_GENERIC</text>
	<text x="265" y="387.8" fill="#000000" font-family="Verdana" font-size="12">code_item_generique</text>
	<line x1="265" y1="390" x2="396" y2="390" stroke="#000000" stroke-width="1"/>
	<text x="265" y="404.8" fill="#000000" font-family="Verdana" font-size="12">type</text>
	<text x="265" y="421.8" fill="#000000" font-family="Verdana" font-size="12">categorie</text>
	<text x="265" y="438.8" fill="#000000" font-family="Verdana" font-size="12">name</text>
	<text x="265" y="455.8" fill="#000000" font-family="Verdana" font-size="12">niveau</text>
	<text x="265" y="472.8" fill="#000000" font-family="Verdana" font-size="12">carac</text>
	<text x="265" y="489.8" fill="#000000" font-family="Verdana" font-size="12">description</text>
	<text x="265" y="506.8" fill="#000000" font-family="Verdana" font-size="12">lien_image</text>
</g>
</svg>