<?xml version="1.0" encoding="utf-8"?>
<!-- Generated by Mocodo 4.0.2 -->
<svg width="592" height="441" viewBox="0 0 592 441" xmlns="http://www.w3.org/2000/svg">
<rect x="0" y="0" width="592" height="441" fill="#ffffff" stroke="none" stroke-width="0"/>

<!-- Entity FAVORIS -->
<g>
	<g>
		<rect x="247" y="9" width="88" height="25" fill="#f4a582" stroke="none" stroke-width="0" opacity="1"/>
		<rect x="247" y="34" width="88" height="59" fill="#fddbc7" stroke="none" stroke-width="0" opacity="1"/>
		<rect x="247" y="9" width="88" height="84" fill="none" stroke="#d6604d" stroke-width="2" opacity="1"/>
		<line x1="247" y1="34" x2="335" y2="34" stroke="#d6604d" stroke-width="1"/>
	</g>
	<text x="264" y="26.75" fill="#000000" font-family="Verdana" font-size="12">FAVORIS</text>
	<text x="252" y="51.8" fill="#000000" font-family="Verdana" font-size="12">code_favoris</text>
	<line x1="252" y1="54" x2="329" y2="54" stroke="#000000" stroke-width="1"/>
	<text x="252" y="68.8" fill="#000000" font-family="Verdana" font-size="12">#code_user</text>
	<text x="252" y="85.8" fill="#000000" font-family="Verdana" font-size="12">#code_hdv</text>
</g>

<!-- Entity USER -->
<g>
	<g>
		<rect x="41" y="76" width="142" height="25" fill="#f4a582" stroke="none" stroke-width="0" opacity="1"/>
		<rect x="41" y="101" width="142" height="161" fill="#fddbc7" stroke="none" stroke-width="0" opacity="1"/>
		<rect x="41" y="76" width="142" height="186" fill="none" stroke="#d6604d" stroke-width="2" opacity="1"/>
		<line x1="41" y1="101" x2="183" y2="101" stroke="#d6604d" stroke-width="1"/>
	</g>
	<text x="95" y="93.75" fill="#000000" font-family="Verdana" font-size="12">USER</text>
	<text x="46" y="118.8" fill="#000000" font-family="Verdana" font-size="12">code_user</text>
	<line x1="46" y1="121" x2="109" y2="121" stroke="#000000" stroke-width="1"/>
	<text x="46" y="135.8" fill="#000000" font-family="Verdana" font-size="12">pseudo</text>
	<text x="46" y="152.8" fill="#000000" font-family="Verdana" font-size="12">email</text>
	<text x="46" y="169.8" fill="#000000" font-family="Verdana" font-size="12">password</text>
	<text x="46" y="186.8" fill="#000000" font-family="Verdana" font-size="12">role</text>
	<text x="46" y="203.8" fill="#000000" font-family="Verdana" font-size="12">discord</text>
	<text x="46" y="220.8" fill="#000000" font-family="Verdana" font-size="12">profil_picture_id</text>
	<text x="46" y="237.8" fill="#000000" font-family="Verdana" font-size="12">discord&#45;access&#45;token</text>
	<text x="46" y="254.8" fill="#000000" font-family="Verdana" font-size="12">discord&#45;refresh&#45;token</text>
</g>

<!-- Entity HDV -->
<g>
	<g>
		<rect x="399" y="101" width="152" height="25" fill="#f4a582" stroke="none" stroke-width="0" opacity="1"/>
		<rect x="399" y="126" width="152" height="111" fill="#fddbc7" stroke="none" stroke-width="0" opacity="1"/>
		<rect x="399" y="101" width="152" height="136" fill="none" stroke="#d6604d" stroke-width="2" opacity="1"/>
		<line x1="399" y1="126" x2="551" y2="126" stroke="#d6604d" stroke-width="1"/>
	</g>
	<text x="462" y="118.75" fill="#000000" font-family="Verdana" font-size="12">HDV</text>
	<text x="404" y="143.8" fill="#000000" font-family="Verdana" font-size="12">code_hdv</text>
	<line x1="404" y1="146" x2="463" y2="146" stroke="#000000" stroke-width="1"/>
	<text x="404" y="160.8" fill="#000000" font-family="Verdana" font-size="12">serveur</text>
	<text x="404" y="177.8" fill="#000000" font-family="Verdana" font-size="12">carac_specifiques</text>
	<text x="404" y="194.8" fill="#000000" font-family="Verdana" font-size="12">price</text>
	<text x="404" y="211.8" fill="#000000" font-family="Verdana" font-size="12">#code_user</text>
	<text x="404" y="228.8" fill="#000000" font-family="Verdana" font-size="12">#code_item_generique</text>
</g>

<!-- Entity ITEMS_GENERIC -->
<g>
	<g>
		<rect x="404" y="262" width="142" height="25" fill="#f4a582" stroke="none" stroke-width="0" opacity="1"/>
		<rect x="404" y="287" width="142" height="145" fill="#fddbc7" stroke="none" stroke-width="0" opacity="1"/>
		<rect x="404" y="262" width="142" height="170" fill="none" stroke="#d6604d" stroke-width="2" opacity="1"/>
		<line x1="404" y1="287" x2="546" y2="287" stroke="#d6604d" stroke-width="1"/>
	</g>
	<text x="424" y="279.75" fill="#000000" font-family="Verdana" font-size="12">ITEMS_GENERIC</text>
	<text x="409" y="304.8" fill="#000000" font-family="Verdana" font-size="12">code_item_generique</text>
	<line x1="409" y1="307" x2="540" y2="307" stroke="#000000" stroke-width="1"/>
	<text x="409" y="321.8" fill="#000000" font-family="Verdana" font-size="12">type</text>
	<text x="409" y="338.8" fill="#000000" font-family="Verdana" font-size="12">categorie</text>
	<text x="409" y="355.8" fill="#000000" font-family="Verdana" font-size="12">name</text>
	<text x="409" y="372.8" fill="#000000" font-family="Verdana" font-size="12">niveau</text>
	<text x="409" y="389.8" fill="#000000" font-family="Verdana" font-size="12">carac</text>
	<text x="409" y="406.8" fill="#000000" font-family="Verdana" font-size="12">description</text>
	<text x="409" y="423.8" fill="#000000" font-family="Verdana" font-size="12">lien_image</text>
</g>

<!-- Link from &quot;code_user&quot; (FAVORIS) to &quot;code_user&quot; (USER) -->
<path d="M247 64.5 C215 89.5 225.67 114.5 183 114.5" fill="none" stroke="#878787" stroke-width="2"/>
<polygon points="183 114.5 195 108.5 191 114.5 195 120.5" fill="#878787" stroke-width="0"/>
<circle cx="247" cy="64.5" r="2" stroke="#878787" stroke-width="2" fill="#878787"/>

<!-- Link from &quot;code_hdv&quot; (FAVORIS) to &quot;code_hdv&quot; (HDV) -->
<path d="M335 81.5 C367 110.5 356.33 139.5 399 139.5" fill="none" stroke="#878787" stroke-width="2"/>
<polygon points="399 139.5 387 145.5 391 139.5 387 133.5" fill="#878787" stroke-width="0"/>
<circle cx="335" cy="81.5" r="2" stroke="#878787" stroke-width="2" fill="#878787"/>

<!-- Link from &quot;code_user&quot; (HDV) to &quot;code_user&quot; (USER) -->
<path d="M399 207.5 C291 161 327 114.5 183 114.5" fill="none" stroke="#878787" stroke-width="2"/>
<polygon points="183 114.5 195 108.5 191 114.5 195 120.5" fill="#878787" stroke-width="0"/>
<circle cx="399" cy="207.5" r="2" stroke="#878787" stroke-width="2" fill="#878787"/>

<!-- Link from &quot;code_item_generique&quot; (HDV) to &quot;code_item_generique&quot; (ITEMS_GENERIC) -->
<path d="M399 224.5 C345 262.5 350 300.5 404 300.5" fill="none" stroke="#878787" stroke-width="2"/>
<polygon points="404 300.5 392 306.5 396 300.5 392 294.5" fill="#878787" stroke-width="0"/>
<circle cx="399" cy="224.5" r="2" stroke="#878787" stroke-width="2" fill="#878787"/>
</svg>