<svg xmlns:xlink="http://www.w3.org/1999/xlink" height="77" width="77" xmlns="http://www.w3.org/2000/svg"><use height="15.4" transform="scale(5)" width="15.4" xlink:href="#a"/><defs><g id="a"><path d="M14.9 7.45q0 3.05-2.2 5.25l-.9.75q-1.9 1.4-4.35 1.45-3.1-.05-5.25-2.2Q0 10.5 0 7.45q0-3.1 2.2-5.25l1-.9Q5.05 0 7.45 0q2.3 0 4.1 1.25l.25.15.9.8q2.2 2.15 2.2 5.25m-8.25-6.3Q4.55 1.6 3.2 2.8L3 3Q1.1 4.8 1.15 7.4 1.1 9.95 3 11.8q1.85 1.8 4.45 1.85Q10 13.6 11.8 11.9l.15-.1q1.85-1.85 1.85-4.4 0-2.6-1.85-4.4l-.15-.15-.25-.2q-1.2-1-3.05-1.55H6.8l-.15.05" fill="#f30" fill-rule="evenodd" transform="translate(.25 .25)"/><path d="M8.5 1.1q1.85.55 3.05 1.55l.25.2.15.15q1.85 1.8 1.85 4.4 0 2.55-1.85 4.4l-.15.1q-1.8 1.7-4.35 1.75Q4.85 13.6 3 11.8 1.1 9.95 1.15 7.4 1.1 4.8 3 3l.2-.2q1.35-1.2 3.45-1.65h.15l.1.1 1.6-.15.05.05-.05-.05M4.35 10l-.05-.05V10h.05m4.9 2.1-.1.05.05-.05h.05m-2.55-.15-.5-.25 1.5.55-1-.3" fill="#e3e3e3" fill-rule="evenodd" transform="translate(.25 .25)"/><path d="M4.35 10H4.3v-.05l.05.05" fill="#015eba" fill-rule="evenodd" transform="translate(.25 .25)"/><path d="m9.25 12.1.05-.1-.05.1H9.2l-.05.05.1-.05m-2.55-.15 1 .3-1.5-.55.5.25" fill="#1f8efe" fill-rule="evenodd" transform="translate(.25 .25)"/><path d="M15.15 7.7q0 3.05-2.2 5.25l-.9.75q-1.9 1.4-4.35 1.45-3.1-.05-5.25-2.2-2.2-2.2-2.2-5.25 0-3.1 2.2-5.25l1-.9Q5.3.25 7.7.25q2.3 0 4.1 1.25l.25.15.9.8q2.2 2.15 2.2 5.25z" fill="none" stroke="#c00" stroke-miterlimit="3" stroke-width=".5"/><path d="M7.45 11.75Q2.1 7.7 2.9 5.4q.65-2.25 2.15-2.2 1.3.15 2.45 1.75 1-1.6 2.3-1.75 1.5-.05 2.2 2.2.75 2.3-4.55 6.35" fill="#ff1e1e" fill-rule="evenodd" transform="translate(.25 .25)"/><path d="m10.85 6.7.1-1-.45-1q-.35-.45-.8-.45-.35.05-.55.45-.2.45-.1 1 .1.6.5 1 .35.45.7.45.4 0 .6-.45" fill="#f0a6a6" fill-rule="evenodd" transform="translate(.25 .25)"/></g></defs></svg>