<svg xmlns:xlink="http://www.w3.org/1999/xlink" height="77.75" width="86.5" xmlns="http://www.w3.org/2000/svg"><use height="15.55" transform="scale(5)" width="17.3" xlink:href="#a"/><defs><g id="a" fill-rule="evenodd"><path d="m9 2.35 6.4 11.95H2.1L9 2.35" fill="#e3e3e3"/><path d="m9 1.35 7.25 13.55H1.15L9 1.35m0 1L2.1 14.3h13.3L9 2.35" fill="#024b95"/><path d="m9 0 8.3 15.55H0L9 0m0 1.35L1.15 14.9h15.1L9 1.35" fill="#85c2fe"/><path d="m7.35 14.4-.5-.35 1.7.35q.7-.05 1.2-.5 1.05-1.05 1.3-3.9v.2L11 11.6q-.2 2-.8 3.05l-.1.15-1.35.1-.9-.3-.5-.2" fill="#e3e3e3"/><path d="M10.2 14.65q.6-1.05.8-3.05l.05-1.4V10q-.25 2.85-1.3 3.9-.5.45-1.2.5l-1.7-.35.5.35q.7.4 1.4.5l1.35-.1.05-.05.05-.1M8.85 3.4l.7 1.35q2.25 4.4 2.3 6.4 0 5.3-4.4 4.2-1.95-.85-1.8-2.55 1.65 1 3.1-.25.7-.6.9-1.5.4-2.35-.25-4.65l-.2-.65-.35-2.35" fill="#024b95"/><path d="M5.65 12.8q.1-1.2 1.15-2.7Q9.35 6.4 8 4.75l.85-1.35.35 2.35.2.65q.65 2.3.25 4.65-.2.9-.9 1.5-1.45 1.25-3.1.25" fill="#1f8efe"/></g></defs></svg>