<svg xmlns:xlink="http://www.w3.org/1999/xlink" height="77" width="77" xmlns="http://www.w3.org/2000/svg"><use height="15.4" transform="scale(5)" width="15.4" xlink:href="#a"/><defs><g id="a"><path d="m6.85 1.1-.05.05h-.15l.15-.05h.05M9.2 12.15h-.05.05l.1-.15-.1.1v.05m-2.5-.2 1 .3-1.5-.55.5.25" fill="#1f8efe" fill-rule="evenodd" transform="translate(.25 .25)"/><path d="m6.85 1.1.6-.05 1.15.05q1.8.55 2.95 1.55l.25.2.15.15q1.85 1.8 1.85 4.4 0 2.55-1.85 4.4l-.15.1q-1.8 1.7-4.35 1.75H7.2q-1.3-.1-2.4-.6l3.6-4.2 1.9 2.05.25-6.65-6.65-.3 2 2.15-4.15 4q-.6-1.2-.6-2.55V7.4Q1.1 4.8 3 3l.2-.2q1.35-1.2 3.45-1.65h.15l.05-.05M9.2 12.15v-.05l.1-.1-.1.15m-2.5-.2-.5-.25 1.5.55-1-.3" fill="#e3e3e3" fill-rule="evenodd" transform="translate(.25 .25)"/><path d="m4.3 9.95.05.05H4.3v-.05" fill="#015eba" fill-rule="evenodd" transform="translate(.25 .25)"/><path d="m10.55 4.25-.25 6.65-1.9-2.05-3.6 4.2L3 11.8l-.45-.5 4.9-4.95-1.6-1.45 4.7-.65M4.3 9.95V10h.05l-.05-.05" fill="#606" fill-rule="evenodd" transform="translate(.25 .25)"/><path d="M4.8 13.05q1.1.5 2.4.6h.25Q10 13.6 11.8 11.9l.15-.1q1.85-1.85 1.85-4.4 0-2.6-1.85-4.4l-.15-.15-.25-.2q-1.15-1-2.95-1.55l-1.15-.05-.6.05H6.8l-.15.05Q4.55 1.6 3.2 2.8L3 3Q1.1 4.8 1.15 7.4v.15q0 1.35.6 2.55l4.15-4-2-2.15 6.65.3-4.7.65 1.6 1.45-4.9 4.95.45.5 1.8 1.25m7-11.65.9.8q2.2 2.15 2.2 5.25 0 3.05-2.2 5.25l-.9.75q-1.9 1.4-4.35 1.45-3.1-.05-5.25-2.2Q0 10.5 0 7.45q0-3.1 2.2-5.25l1-.9Q5.05 0 7.45 0q2.3 0 4.1 1.25l.25.15" fill="#808" fill-rule="evenodd" transform="translate(.25 .25)"/><path d="m12.05 1.65.9.8q2.2 2.15 2.2 5.25 0 3.05-2.2 5.25l-.9.75q-1.9 1.4-4.35 1.45-3.1-.05-5.25-2.2-2.2-2.2-2.2-5.25 0-3.1 2.2-5.25l1-.9Q5.3.25 7.7.25q2.3 0 4.1 1.25l.25.15z" fill="none" stroke="#606" stroke-miterlimit="3" stroke-width=".5"/></g></defs></svg>