<svg xmlns:xlink="http://www.w3.org/1999/xlink" height="77" width="77" xmlns="http://www.w3.org/2000/svg"><use height="15.4" transform="scale(5)" width="15.4" xlink:href="#a"/><defs><g id="a"><path d="M1.1 7.75v.4q.3 1.9 1.3 2.85l1.5 1.4q.4.45.5-.45l.2-1.85 4.15.95 2.15.35-.4-.35.05-.05.85-.8q.6-.6.1-1.2 1.1-.6 1.55-.75l.45-.3.2-.2.1.05v-.4q-.05-2.6-1.9-4.4-1.25-1.25-3.4-1.9l-2.3.15Q4.35 1.6 2.95 3 1.1 4.8 1.1 7.4v.35m13.8-.3q-.05 3.1-2.2 5.3-2.2 2.15-5.25 2.15-3.1 0-5.3-2.15-2.2-2.2-2.15-5.3-.05-3.1 2.15-5.25Q4.35 0 7.45 0q3.05 0 5.25 2.2 2.15 2.15 2.2 5.25" fill="#724701" fill-rule="evenodd" transform="translate(.25 .25)"/><path d="M1.1 7.75V7.4q0-2.6 1.85-4.4 1.4-1.4 3.25-1.75l2.3-.15q2.15.65 3.4 1.9 1.85 1.8 1.9 4.4v.4l-.1-.05-2.45-.45-1.3.65-1.75.3 2.15 1.65L5 7.35l-.3-.2-.75.05-.2.7-.85.1-1.8-.25" fill="#e3e3e3" fill-rule="evenodd" transform="translate(.25 .25)"/><path d="m13.7 7.75-.2.2-.45.3q-.45.15-1.55.75.5.6-.1 1.2l-.85.8-.05.05.4.35-2.15-.35-4.15-.95-.2 1.85q-.1.9-.5.45L2.4 11q-1-.95-1.3-2.85v-.4L2.9 8l.85-.1.2-.7.75-.05.3.2 5.35 2.55L8.2 8.25l1.75-.3 1.3-.65 2.45.45" fill="#ab5703" fill-rule="evenodd" transform="translate(.25 .25)"/><path d="M15.15 7.7q-.05 3.1-2.2 5.3-2.2 2.15-5.25 2.15-3.1 0-5.3-2.15Q.2 10.8.25 7.7.2 4.6 2.4 2.45 4.6.25 7.7.25q3.05 0 5.25 2.2 2.15 2.15 2.2 5.25z" fill="none" stroke="#d36c05" stroke-miterlimit="3" stroke-width=".5"/></g></defs></svg>