<svg xmlns:xlink="http://www.w3.org/1999/xlink" height="77.75" width="86.5" xmlns="http://www.w3.org/2000/svg"><use height="15.55" transform="scale(5)" width="17.3" xlink:href="#a"/><defs><g id="a" fill-rule="evenodd"><path d="M15.4 14.3H2.1L9 2.35l6.4 11.95" fill="#e3e3e3"/><path d="M1.15 14.9v-.05L9 1.35l7.25 13.55H1.15m14.25-.6L9 2.35 2.1 14.3h13.3" fill="#063"/><path d="M1.15 14.9h15.1L9 1.35l-7.85 13.5v.05m16.15.65H0L9 0l8.3 15.55" fill="#093"/><path d="M7.95 15.05q-.2 0-.3-.15l-.05.05.2-.7.05-.15.4-2.4.35.35-.3-.45-.2-.35-.35-.3Q6.4 9.55 5.45 9.7q.2-3.2 2.8-4.65-1 .9-1.45 2.8l.45-.6h.05L8.05 9H9.9q-1.3.5-1.25 1.2l-.1.95q-.2.1.55 1 .7.8.35.75l-.55-.3q.3.4.1 1.15l-.25.55q-.5 0-.75-.2v.2l.55.25-.2.2-.4.3m-.2-4.1q.35-1 1.4-1.8-1.1.1-1.85 1l.45.8" fill="#093"/><path d="M7.3 7.25V7.2q1-1.35 2-1.65 1.2-.35 2.6.9-.5.6-.7 1.55l-.15.8-.2 2-.6 2.7-.15-.2q-.75.4-1.2 1.2l-.5.55h-.45l.4-.3.2-.2h.05l.3-.25h-.15l.25-.55q.2-.75-.1-1.15l.55.3q.35.05-.35-.75-.75-.9-.55-1l.1-.95Q8.6 9.5 9.9 9H8.05L7.3 7.25m3.75 1.55q-.1-.85.15-.8-1.15-.8-2.2-.55 1.3.3 1.85 1.05l.2.3" fill="#063"/><path d="M8.75 14.3h.15l-.3.25h-.05L8 14.3v-.2q.25.2.75.2m2.3-5.5-.2-.3Q10.3 7.75 9 7.45q1.05-.25 2.2.55-.25-.05-.15.8m-3.3 2.15-.45-.8q.75-.9 1.85-1-1.05.8-1.4 1.8" fill="#e3e3e3"/></g></defs></svg>