<svg xmlns:xlink="http://www.w3.org/1999/xlink" height="77.75" width="86.5" xmlns="http://www.w3.org/2000/svg"><use height="15.55" transform="scale(5)" width="17.3" xlink:href="#a"/><defs><g id="a" fill-rule="evenodd"><path d="M1.2 14.85h15.1L9 1.35l-7.8 13.5m-1.2.7L9 0l8.3 15.55H0" fill="#fe8181"/><path d="M2.15 14.3h13.3L9 2.35 2.15 14.3m-.95.55L9 1.35l7.3 13.5H1.2" fill="#9b0202"/><path d="M2.15 14.3 9 2.35l6.45 11.95H2.15" fill="#e3e3e3"/><path d="M7.8 14.5q-2.4-1.6-2.65-2.85l-.4-2.25q0-.85.25.55.8-2.85 2.15-3.25-.8 1.15-.75 2.85Q7.6 9 8.8 7q.5-1.35-.4-2.65l2.7 2.55q1.3 2 .1 4.75.75-.05 1.4-1.35L12.5 9q.75 1.4.55 2.4-.85 1.7-2.2 2.9-.45-.05-.35-.65l1.55-1.6-2.35 1.6q-.4.05-.2-.6l.25-.9q.1-.25.45-.25-.3-1.35-.1-2.05.2-.65-.35.3-1.1 1.45-1.95 1.9l-.3.05q-.85-.15-1.55-.65.45 1.2 1.6 2.15l.25.3q.35.4 0 .6" fill="red"/><path d="M7.8 14.5q.35-.2 0-.6l-.25-.3q-1.15-.95-1.6-2.15.7.5 1.55.65l.3-.05q.85-.45 1.95-1.9.55-.95.35-.3-.2.7.1 2.05-.35 0-.45.25l-.25.9q-.2.65.2.6l2.35-1.6-1.55 1.6q-.1.6.35.65l-.15.15-2.3.45-.6-.4" fill="#9b0202"/></g></defs></svg>