<svg xmlns:xlink="http://www.w3.org/1999/xlink" height="78.5" width="78.5" xmlns="http://www.w3.org/2000/svg"><use height="15.7" transform="scale(5)" width="15.7" xlink:href="#a"/><defs><g id="a" fill-rule="evenodd"><path d="M14.35 1.3v13.25H1.1V1.3h13.25" fill="#e3e3e3"/><path d="M15 .65v14.5H.5V.65H15m-.65.65H1.1v13.25h13.25V1.3" fill="#024b95"/><path d="M0 0h15.7v15.7H0V0m15 .65H.5v14.5H15V.65" fill="#85c2fe"/><path d="m6.25 11.05-.55-.35 1.8.4q.75-.05 1.35-.6 1.15-1.1 1.4-4.2v.2l-.05 1.55q-.2 2.1-.85 3.3l-.05.1h-.05l-.05.05-1.45.1-1-.3-.5-.25" fill="#e3e3e3"/><path d="M9.35 11.35q.65-1.2.85-3.3l.05-1.55v-.2q-.25 3.1-1.4 4.2-.6.55-1.35.6l-1.8-.4.55.35q.75.45 1.5.55l1.45-.1.05-.05h.05l.05-.1M7.6.6h1.05q2.45 4.8 2.45 6.9 0 5.75-4.75 4.6-2.15-.95-2-2.75h.05q1.75 1.05 3.35-.3.75-.7.95-1.6.45-2.55-.25-5.05l-.2-.75Q8.1.85 7.6.6m1.7 10.85-.1.05.1-.05" fill="#024b95"/><path d="m4.4 9.35-.05-.05q.1-1.25 1.3-2.9 2.75-4 1.3-5.8h.65q.5.25.65 1.05l.2.75q.7 2.5.25 5.05-.2.9-.95 1.6-1.6 1.35-3.35.3" fill="#1f8efe"/></g></defs></svg>