<svg xmlns:xlink="http://www.w3.org/1999/xlink" height="77" width="77" xmlns="http://www.w3.org/2000/svg"><use height="15.4" transform="scale(5)" width="15.4" xlink:href="#a"/><defs><g id="a"><path d="M14.55 5q.35 1.15.35 2.45 0 1.3-.35 2.45-.55 1.55-1.8 2.8-2.2 2.2-5.3 2.2-3.05 0-5.25-2.2T0 7.45q0-3.1 2.2-5.25Q4.4 0 7.45 0q3.1 0 5.3 2.2Q14 3.45 14.55 5M9.9 13.15l-.2.15.45-.15.15-.05.3-.15 2.3-1.65q.85-1.2.9-2.9.05-3.6-1.8-5.4-1.3-1.25-3.45-1.9l-2.25.2Q4.4 1.6 3 3 1.15 4.85 1.15 7.4q0 2.55 1.9 4.5 1.85 1.95 4.1 1.9l-.7-.45q.4-.2 0-.65l-.3-.35q-1.25-1.05-1.8-2.4.8.55 1.75.7l.35-.05q.95-.5 2.2-2.15.6-1.05.4-.3-.25.75.1 2.3-.4 0-.5.25l-.3 1q-.2.75.25.7l2.6-1.8q-1.55 1.35-1.7 1.8-.15.65.4.75" fill="#9b0202" fill-rule="evenodd" transform="translate(.25 .25)"/><path d="m6.45 13.35.7.45q-2.25.05-4.1-1.9-1.9-1.95-1.9-4.5T3 3q1.4-1.4 3.3-1.7l2.25-.2Q10.7 1.75 12 3q1.85 1.8 1.8 5.4-.05 1.7-.9 2.9l-2.3 1.65-.3.15-.15.05-.45.15.2-.15q1.5-1.35 2.45-3.3.25-1.1-.6-2.7l.1 1.5q-.75 1.45-1.6 1.5 1.35-3.1-.1-5.35l-3-2.85q1 1.45.4 2.95-1.3 2.3-2.65 2.9-.1-1.9.85-3.2-1.55.45-2.45 3.65-.3-1.6-.25-.65l.4 2.55q.3 1.4 3 3.2" fill="#e3e3e3" fill-rule="evenodd" transform="translate(.25 .25)"/><path d="M6.45 13.35q-2.7-1.8-3-3.2l-.4-2.55q-.05-.95.25.65.9-3.2 2.45-3.65-.95 1.3-.85 3.2 1.35-.6 2.65-2.9.6-1.5-.4-2.95l3 2.85q1.45 2.25.1 5.35.85-.05 1.6-1.5l-.1-1.5q.85 1.6.6 2.7-.95 1.95-2.45 3.3-.55-.1-.4-.75.15-.45 1.7-1.8l-2.6 1.8q-.45.05-.25-.7l.3-1q.1-.25.5-.25-.35-1.55-.1-2.3.2-.75-.4.3-1.25 1.65-2.2 2.15l-.35.05q-.95-.15-1.75-.7.55 1.35 1.8 2.4l.3.35q.4.45 0 .65" fill="red" fill-rule="evenodd" transform="translate(.25 .25)"/><path d="M14.8 5.25q.35 1.15.35 2.45 0 1.3-.35 2.45-.55 1.55-1.8 2.8-2.2 2.2-5.3 2.2-3.05 0-5.25-2.2T.25 7.7q0-3.1 2.2-5.25Q4.65.25 7.7.25q3.1 0 5.3 2.2 1.25 1.25 1.8 2.8z" fill="none" stroke="#fe8181" stroke-miterlimit="3" stroke-width=".5"/></g></defs></svg>