<svg xmlns:xlink="http://www.w3.org/1999/xlink" height="78.5" width="78.5" xmlns="http://www.w3.org/2000/svg"><use height="15.7" transform="scale(5)" width="15.7" xlink:href="#a"/><defs><g id="a" fill-rule="evenodd"><path d="m13.95 4.5.4.8v-4H1.1v10.05l.85.95.8.4q1.95 1.3 5.3-.85 2-2.15 2.25-5.15.95-3.1 3.65-2.2M12 8.4l-.55.2-.2.55.2.5.55.25.5-.25.25-.5-.25-.55-.5-.2m-8.2.55-.2-.5.2-.55q.25-.2.55-.2l.5.2.25.55-.25.5-.5.25-.55-.25M.5.65H15v14.5H.5V.65"/><path d="m2.75 12.7-.8-.4-.85-.95V1.3h13.25v4l-.4-.8q-.9-1.3-2.65-.65Q8.35 4.9 8.15 8.7q.2 3-3.45 4.05l-1.95-.05M12 8.4l.5.2.25.55-.25.5-.5.25-.55-.25-.2-.5.2-.55.55-.2m-8.2.55.55.25.5-.25.25-.5-.25-.55-.5-.2q-.3 0-.55.2l-.2.55.2.5" fill="#e3e3e3"/><path d="M13.95 4.5q-2.7-.9-3.65 2.2-.25 3-2.25 5.15-3.35 2.15-5.3.85l1.95.05Q8.35 11.7 8.15 8.7q.2-3.8 3.15-4.85 1.75-.65 2.65.65" fill="#404040"/><path d="M0 0h15.7v15.7H0V0m.5.65v14.5H15V.65H.5" fill="#555"/></g></defs></svg>