<svg xmlns:xlink="http://www.w3.org/1999/xlink" height="77" width="77" xmlns="http://www.w3.org/2000/svg"><use height="15.4" transform="scale(5)" width="15.4" xlink:href="#a"/><defs><g id="a"><path d="m11.55 2.65.25.2.15.15q1.85 1.8 1.85 4.4 0 2.55-1.85 4.4l-.15.1q-1.8 1.7-4.35 1.75H7.2q-1.3-.1-2.4-.6l-.5-.25-.35-.15-.55-.35-.95-1q-.6-.75-.9-1.5-.35-.8-.4-1.95V7.4Q1.1 4.8 3 3l.2-.2q1.35-1.2 3.45-1.65l.15-.05h.05l.6-.05 1.15.05q1.8.55 2.95 1.55M4.3 10h.05l-.05-.05V10m4.95 2.1-.1.05.05-.05h.05" fill="#e3e3e3" fill-rule="evenodd" transform="translate(.25 .25)"/><path d="M4.3 10v-.05l.05.05H4.3" fill="#015eba" fill-rule="evenodd" transform="translate(.25 .25)"/><path d="m9.25 12.1.05-.1-.05.1H9.2l-.05.05.1-.05" fill="#1f8efe" fill-rule="evenodd" transform="translate(.25 .25)"/><path d="M11.55 2.65q-1.15-1-2.95-1.55l-1.15-.05-.6.05H6.8l-.15.05Q4.55 1.6 3.2 2.8L3 3Q1.1 4.8 1.15 7.4v.45Q1.2 9 1.55 9.8q.3.75.9 1.5l.95 1 .55.35.35.15.5.25q1.1.5 2.4.6h.25Q10 13.6 11.8 11.9l.15-.1q1.85-1.85 1.85-4.4 0-2.6-1.85-4.4l-.15-.15-.25-.2m1.15-.45q2.2 2.15 2.2 5.25 0 3.05-2.2 5.25l-.9.75q-1.9 1.4-4.35 1.45-3.1-.05-5.25-2.2Q0 10.5 0 7.45q0-3.1 2.2-5.25l1-.9Q5.05 0 7.45 0q2.3 0 4.1 1.25l.25.15.9.8" fill="#fc0" fill-rule="evenodd" transform="translate(.25 .25)"/><path d="M12.95 2.45q2.2 2.15 2.2 5.25 0 3.05-2.2 5.25l-.9.75q-1.9 1.4-4.35 1.45-3.1-.05-5.25-2.2-2.2-2.2-2.2-5.25 0-3.1 2.2-5.25l1-.9Q5.3.25 7.7.25q2.3 0 4.1 1.25l.25.15.9.8z" fill="none" stroke="#f90" stroke-miterlimit="3" stroke-width=".5"/><path d="m11.2 7.6-2.25 3.7H6.5l2.55-3.7L6.2 5.7l4.05-3.3-1.2 5.2h2.15" fill="#6ff" fill-rule="evenodd" transform="translate(.25 .25)"/><path d="m10.25 2.4.95 5.2H9.05l1.2-5.2" fill="#fff" fill-rule="evenodd" transform="translate(.25 .25)"/><path d="m8.95 11.3-4.8 1 2.35-1h2.45M6.2 3.55l4.05-1.15L6.2 5.7l2.85 1.9-2.55 3.7-2.35-1.9L6.2 5.7V3.55" fill="#6cf" fill-rule="evenodd" transform="translate(.25 .25)"/><path d="m3.5 7.45 2.7-3.9V5.7L4.15 9.4 3.5 7.45m.65 1.95 2.35 1.9-2.35 1V9.4" fill="#63f" fill-rule="evenodd" transform="translate(.25 .25)"/><path d="M4.15 12.3 3.5 7.45l.65 1.95v2.9" fill="#60c" fill-rule="evenodd" transform="translate(.25 .25)"/></g></defs></svg>