<svg xmlns:xlink="http://www.w3.org/1999/xlink" height="78.5" width="78.5" xmlns="http://www.w3.org/2000/svg"><use height="15.7" transform="scale(5)" width="15.7" xlink:href="#a"/><defs><g id="a" fill-rule="evenodd"><path d="M15 .65H.5v14.5H15V.65M0 0h15.7v15.7H0V0" fill="#fe8181"/><path d="M14.35 1.3H1.1v13.25h13.25V1.3M15 .65v14.5H.5V.65H15" fill="#9b0202"/><path d="M14.35 1.3v13.25H1.1V1.3h13.25" fill="#e3e3e3"/><path d="M6.4 14.7q-2.8-1.9-3.1-3.35-.4-1.65-.45-2.65-.05-1 .25.65.95-3.3 2.6-3.8-1 1.35-.9 3.35 1.4-.6 2.75-3 .65-1.6-.4-3.1l3.1 2.95q1.55 2.35.1 5.6.9-.05 1.7-1.55l-.1-1.6q.85 1.7.6 2.85-1 2-2.55 3.45-.55-.15-.4-.8l1.75-1.9-2.7 1.9q-.45.05-.25-.75l.3-1.05q.1-.25.5-.25-.35-1.6-.1-2.4.25-.75-.4.35-1.3 1.7-2.3 2.2l-.35.05q-1-.15-1.85-.7.6 1.4 1.9 2.5l.3.35q.45.5 0 .7" fill="red"/><path d="M6.4 14.7q.45-.2 0-.7l-.3-.35q-1.3-1.1-1.9-2.5.85.55 1.85.7l.35-.05q1-.5 2.3-2.2.65-1.1.4-.35-.25.8.1 2.4-.4 0-.5.25l-.3 1.05q-.2.8.25.75l2.7-1.9-1.75 1.9q-.15.65.4.8l-.2.15-2.65.5-.75-.45" fill="#9b0202"/></g></defs></svg>