<svg xmlns:xlink="http://www.w3.org/1999/xlink" height="78.5" width="78.5" xmlns="http://www.w3.org/2000/svg"><use height="15.7" transform="scale(5)" width="15.7" xlink:href="#a"/><defs><g id="a" fill-rule="evenodd"><path d="M15 15.15V.65H.5v14.5H15M0 0h15.7v15.7H0V0" fill="#093"/><path d="M15 15.15H.5V.65H15v14.5M1.1 1.3v13.25h13.25V1.3H1.1" fill="#063"/><path d="M1.1 1.3h13.25v13.25H1.1V1.3" fill="#e3e3e3"/><path d="M7.55 14.65q-.25 0-.35-.15l-.05.05.25-.85.05-.15.45-2.9.45.4L8 10.5l-.25-.4-.45-.4Q5.7 8.05 4.55 8.25 4.8 4.35 7.9 2.6 6.7 3.7 6.15 6l.55-.7.1-.05.85 2.15 2.25-.05Q8.35 8 8.4 8.85l-.1 1.1q-.25.15.65 1.2.85 1 .4.9l-.65-.35q.35.5.1 1.4l-.3.65-.9-.2v.2l.7.3h-.05l-.2.25-.5.35M7.3 9.7Q7.75 8.55 9 7.55q-1.3.1-2.2 1.2l.5.95" fill="#093"/><path d="m6.8 5.25-.05-.05Q8 3.6 9.2 3.25q1.4-.45 3.1 1.05-.6.7-.85 1.85l-.15 1-.25 2.4-.75 3.25-.15-.25q-.9.5-1.45 1.45l-.6.65h-.55l.5-.35.2-.25h.1l.35-.3h-.2l.3-.65q.25-.9-.1-1.4l.65.35q.45.1-.4-.9-.9-1.05-.65-1.2l.1-1.1Q8.35 8 9.9 7.35l-2.25.05-.85-2.15m4.5 1.9q-.1-1.05.15-1Q10.1 5.2 8.8 5.5q1.6.4 2.25 1.25l.25.4" fill="#063"/><path d="M8.5 13.75h.2l-.35.3H8.3l-.7-.3v-.2l.9.2m2.8-6.6-.25-.4Q10.4 5.9 8.8 5.5q1.3-.3 2.65.65-.25-.05-.15 1m-4 2.55-.5-.95q.9-1.1 2.2-1.2-1.25 1-1.7 2.15" fill="#e3e3e3"/></g></defs></svg>