<svg xmlns:xlink="http://www.w3.org/1999/xlink" height="78.5" width="78.5" xmlns="http://www.w3.org/2000/svg"><use height="15.7" transform="scale(5)" width="15.7" xlink:href="#a"/><defs><g id="a" fill-rule="evenodd"><path d="M15.7 0v15.7H0V0h15.7m-.7.65H.5v14.5H15V.65" fill="#d36c05"/><path d="m14.15 8.55.2.05V1.3H1.1v13.25h.75v-1.8l1.25-1.3 5.25.8-.7-.7 4.2.95-.55-.35 2.05-.95V9.8l.8-1.25M15 .65v14.5H.5V.65H15" fill="#724701"/><path d="m14.15 8.55-1.2-.4-1.7 1.3-1.7-.3 1.2 1.45L5.9 8.2H4.1l.3 1.05L1.1 8.2V1.3h13.25v7.3l-.2-.05" fill="#e3e3e3"/><path d="m1.1 8.2 3.3 1.05-.3-1.05h1.8l4.85 2.4-1.2-1.45 1.7.3 1.7-1.3 1.2.4-.8 1.25v1.4l-2.05.95.55.35-4.2-.95.7.7-5.25-.8-1.25 1.3v1.8H1.1V8.2" fill="#ab5703"/></g></defs></svg>