<?xml version="1.0" encoding="utf-8"?>
<svg width="392" height="574" viewBox="0 0 392 574" xmlns="http://www.w3.org/2000/svg">
<rect id="frame" x="0" y="0" width="392" height="574" fill="#fff" stroke="none" stroke-width="0"/>

<!-- Association POSSEDE -->
<g>
	<line x1="208" y1="51" x2="80" y2="51" stroke="#878787" stroke-width="2"/>
	<text x="149" y="68" fill="#b2182b" font-family="Verdana" font-size="12">1,1</text>
	<line x1="80" y1="220" x2="80" y2="51" stroke="#878787" stroke-width="2"/>
	<text x="85" y="110" fill="#b2182b" font-family="Verdana" font-size="12">0,N</text>
	<g>
		<path d="M103 26 a14 14 90 0 1 14 14 V51 h-74 V40 a14 14 90 0 1 14 -14" fill="#bababa" stroke="#bababa" stroke-width="0"/>
		<path d="M117 51 v11 a14 14 90 0 1 -14 14 H57 a14 14 90 0 1 -14 -14 V51 H74" fill="#e0e0e0" stroke="#e0e0e0" stroke-width="0"/>
		<rect x="43" y="26" width="74" height="50" fill="none" rx="14" stroke="#878787" stroke-width="2"/>
		<line x1="43" y1="51" x2="117" y2="51" stroke="#878787" stroke-width="1"/>
		<text x="51" y="43.75" fill="#000" font-family="Verdana" font-size="12">POSSEDE</text>
	</g>
</g>

<!-- Association REPRESENTE -->
<g>
	<line x1="324" y1="220" x2="324" y2="51" stroke="#878787" stroke-width="2"/>
	<text x="329" y="119" fill="#b2182b" font-family="Verdana" font-size="12">0,N</text>
	<line x1="208" y1="51" x2="324" y2="51" stroke="#878787" stroke-width="2"/>
	<text x="246" y="68" fill="#b2182b" font-family="Verdana" font-size="12">1,1</text>
	<g>
		<path d="M357 26 a14 14 90 0 1 14 14 V51 h-94 V40 a14 14 90 0 1 14 -14" fill="#bababa" stroke="#bababa" stroke-width="0"/>
		<path d="M371 51 v11 a14 14 90 0 1 -14 14 H291 a14 14 90 0 1 -14 -14 V51 H94" fill="#e0e0e0" stroke="#e0e0e0" stroke-width="0"/>
		<rect x="277" y="26" width="94" height="50" fill="none" rx="14" stroke="#878787" stroke-width="2"/>
		<line x1="277" y1="51" x2="371" y2="51" stroke="#878787" stroke-width="1"/>
		<text x="284" y="43.75" fill="#000" font-family="Verdana" font-size="12">REPRESENTE</text>
	</g>
</g>

<!-- Association VEND -->
<g>
	<line x1="324" y1="220" x2="208" y2="220" stroke="#878787" stroke-width="2"/>
	<text x="239" y="237" fill="#b2182b" font-family="Verdana" font-size="12">1,1</text>
	<line x1="80" y1="220" x2="208" y2="220" stroke="#878787" stroke-width="2"/>
	<text x="156" y="237" fill="#b2182b" font-family="Verdana" font-size="12">0,N</text>
	<g>
		<path d="M219 195 a14 14 90 0 1 14 14 V220 h-50 V209 a14 14 90 0 1 14 -14" fill="#bababa" stroke="#bababa" stroke-width="0"/>
		<path d="M233 220 v11 a14 14 90 0 1 -14 14 H197 a14 14 90 0 1 -14 -14 V220 H50" fill="#e0e0e0" stroke="#e0e0e0" stroke-width="0"/>
		<rect x="183" y="195" width="50" height="50" fill="none" rx="14" stroke="#878787" stroke-width="2"/>
		<line x1="183" y1="220" x2="233" y2="220" stroke="#878787" stroke-width="1"/>
		<text x="191" y="212.75" fill="#000" font-family="Verdana" font-size="12">VEND</text>
	</g>
</g>

<!-- Association CORRESPOND -->
<g>
	<line x1="324" y1="220" x2="324" y2="363" stroke="#878787" stroke-width="2"/>
	<text x="329" y="330" fill="#b2182b" font-family="Verdana" font-size="12">1,1</text>
	<line x1="324" y1="489" x2="324" y2="363" stroke="#878787" stroke-width="2"/>
	<text x="329" y="405" fill="#b2182b" font-family="Verdana" font-size="12">0,N</text>
	<g>
		<path d="M360 338 a14 14 90 0 1 14 14 V363 h-100 V352 a14 14 90 0 1 14 -14" fill="#bababa" stroke="#bababa" stroke-width="0"/>
		<path d="M374 363 v11 a14 14 90 0 1 -14 14 H288 a14 14 90 0 1 -14 -14 V363 H100" fill="#e0e0e0" stroke="#e0e0e0" stroke-width="0"/>
		<rect x="274" y="338" width="100" height="50" fill="none" rx="14" stroke="#878787" stroke-width="2"/>
		<line x1="274" y1="363" x2="374" y2="363" stroke="#878787" stroke-width="1"/>
		<text x="281" y="355.75" fill="#000" font-family="Verdana" font-size="12">CORRESPOND</text>
	</g>
</g>

<!-- Entity FAVORIS -->
<g>
	<g>
		<rect x="175" y="9" width="66" height="25" fill="#f4a582" stroke="#f4a582" stroke-width="0" opacity="1"/>
		<rect x="175" y="34" width="66" height="59" fill="#fddbc7" stroke="#fddbc7" stroke-width="0" opacity="1"/>
		<rect x="175" y="9" width="66" height="84" fill="none" stroke="#d6604d" stroke-width="2" opacity="1"/>
		<line x1="175" y1="34" x2="241" y2="34" stroke="#d6604d" stroke-width="1"/>
	</g>
	<text x="181" y="26.75" fill="#000" font-family="Verdana" font-size="12">FAVORIS</text>
	<text x="180" y="51.8" fill="#000" font-family="Verdana" font-size="12">id</text>
	<line x1="180" y1="54" x2="192" y2="54" stroke="#000" stroke-width="1"/>
	<text x="180" y="68.8" fill="#000" font-family="Verdana" font-size="12">user_id</text>
	<text x="180" y="85.8" fill="#000" font-family="Verdana" font-size="12">hdv_id</text>
</g>

<!-- Entity USER -->
<g>
	<g>
		<rect x="9" y="118" width="142" height="25" fill="#f4a582" stroke="#f4a582" stroke-width="0" opacity="1"/>
		<rect x="9" y="143" width="142" height="179" fill="#fddbc7" stroke="#fddbc7" stroke-width="0" opacity="1"/>
		<rect x="9" y="118" width="142" height="204" fill="none" stroke="#d6604d" stroke-width="2" opacity="1"/>
		<line x1="9" y1="143" x2="151" y2="143" stroke="#d6604d" stroke-width="1"/>
	</g>
	<text x="63" y="135.75" fill="#000" font-family="Verdana" font-size="12">USER</text>
	<text x="14" y="160.8" fill="#000" font-family="Verdana" font-size="12">id</text>
	<line x1="14" y1="163" x2="26" y2="163" stroke="#000" stroke-width="1"/>
	<text x="14" y="177.8" fill="#000" font-family="Verdana" font-size="12">pseudo</text>
	<text x="14" y="194.8" fill="#000" font-family="Verdana" font-size="12">email</text>
	<text x="14" y="211.8" fill="#000" font-family="Verdana" font-size="12">password</text>
	<text x="14" y="228.8" fill="#000" font-family="Verdana" font-size="12">role</text>
	<text x="14" y="245.8" fill="#000" font-family="Verdana" font-size="12">discord</text>
	<text x="14" y="262.8" fill="#000" font-family="Verdana" font-size="12">pseudo_ig</text>
	<text x="14" y="279.8" fill="#000" font-family="Verdana" font-size="12">profil_picture_id</text>
	<text x="14" y="296.8" fill="#000" font-family="Verdana" font-size="12">discord&#45;access&#45;token</text>
	<text x="14" y="313.8" fill="#000" font-family="Verdana" font-size="12">discord&#45;refresh&#45;token</text>
</g>

<!-- Entity HDV -->
<g>
	<g>
		<rect x="265" y="127" width="118" height="25" fill="#f4a582" stroke="#f4a582" stroke-width="0" opacity="1"/>
		<rect x="265" y="152" width="118" height="161" fill="#fddbc7" stroke="#fddbc7" stroke-width="0" opacity="1"/>
		<rect x="265" y="127" width="118" height="186" fill="none" stroke="#d6604d" stroke-width="2" opacity="1"/>
		<line x1="265" y1="152" x2="383" y2="152" stroke="#d6604d" stroke-width="1"/>
	</g>
	<text x="311" y="144.75" fill="#000" font-family="Verdana" font-size="12">HDV</text>
	<text x="270" y="169.8" fill="#000" font-family="Verdana" font-size="12">id</text>
	<line x1="270" y1="172" x2="282" y2="172" stroke="#000" stroke-width="1"/>
	<text x="270" y="186.8" fill="#000" font-family="Verdana" font-size="12">vendeur_id</text>
	<text x="270" y="203.8" fill="#000" font-family="Verdana" font-size="12">generic_item_id</text>
	<text x="270" y="220.8" fill="#000" font-family="Verdana" font-size="12">type</text>
	<text x="270" y="237.8" fill="#000" font-family="Verdana" font-size="12">categorie</text>
	<text x="270" y="254.8" fill="#000" font-family="Verdana" font-size="12">nom</text>
	<text x="270" y="271.8" fill="#000" font-family="Verdana" font-size="12">carac_specifiques</text>
	<text x="270" y="288.8" fill="#000" font-family="Verdana" font-size="12">description</text>
	<text x="270" y="305.8" fill="#000" font-family="Verdana" font-size="12">lien_image</text>
</g>

<!-- Entity ITEMS_GENERIC -->
<g>
	<g>
		<rect x="268" y="413" width="112" height="25" fill="#f4a582" stroke="#f4a582" stroke-width="0" opacity="1"/>
		<rect x="268" y="438" width="112" height="127" fill="#fddbc7" stroke="#fddbc7" stroke-width="0" opacity="1"/>
		<rect x="268" y="413" width="112" height="152" fill="none" stroke="#d6604d" stroke-width="2" opacity="1"/>
		<line x1="268" y1="438" x2="380" y2="438" stroke="#d6604d" stroke-width="1"/>
	</g>
	<text x="273" y="430.75" fill="#000" font-family="Verdana" font-size="12">ITEMS_GENERIC</text>
	<text x="273" y="455.8" fill="#000" font-family="Verdana" font-size="12">id</text>
	<line x1="273" y1="458" x2="285" y2="458" stroke="#000" stroke-width="1"/>
	<text x="273" y="472.8" fill="#000" font-family="Verdana" font-size="12">type</text>
	<text x="273" y="489.8" fill="#000" font-family="Verdana" font-size="12">categorie</text>
	<text x="273" y="506.8" fill="#000" font-family="Verdana" font-size="12">nom</text>
	<text x="273" y="523.8" fill="#000" font-family="Verdana" font-size="12">carac</text>
	<text x="273" y="540.8" fill="#000" font-family="Verdana" font-size="12">description</text>
	<text x="273" y="557.8" fill="#000" font-family="Verdana" font-size="12">lien_image</text>
</g>
</svg>